<?xml version="1.0"?>
<svg xmlns:xlink="http://www.w3.org/1999/xlink" class="nav__icon" xmlns="http://www.w3.org/2000/svg" viewBox="0 0 24 24" width="24"  height="24" ><g data-name="Layer 2" fill-opacity="0.5" fill="#FFFFFF"><path d="M23.85 7.87a6.39 6.39 0 0 1-1.79 3.31 6.54 6.54 0 0 1-6.93 1.5L4.58 23.22a2.57 2.57 0 0 1-1.89.78 2.64 2.64 0 0 1-1.91-.78 2.68 2.68 0 0 1-.78-1.9 2.71 2.71 0 0 1 .78-1.9L11.32 8.87a6.54 6.54 0 0 1 1.5-6.93A6.39 6.39 0 0 1 16.13.15a6.12 6.12 0 0 1 3.63.29l-4.1 4.1.4 3.4 3.4.4 4.1-4.1a6.12 6.12 0 0 1 .29 3.63z" data-name="Layer 1" fill="#FFFFFF" fill-opacity="0.5"></path></g></svg>