<svg xmlns:xlink="http://www.w3.org/1999/xlink" class="nav__icon" xmlns="http://www.w3.org/2000/svg" viewBox="0 0 24 24" width="24"  height="24" ><g data-name="Layer 2" fill-opacity="0.5" fill="#FFFFFF"><g data-name="Layer 1" fill="#FFFFFF" fill-opacity="0.5"><path d="M8 8h8v8H8z" fill="#FFFFFF" fill-opacity="0.5"></path><path d="M24 9V7h-2V4a2 2 0 0 0-2-2h-3V0h-2v2h-2V0h-2v2H9V0H7v2H4a2 2 0 0 0-2 2v3H0v2h2v2H0v2h2v2H0v2h2v3a2 2 0 0 0 2 2h3v2h2v-2h2v2h2v-2h2v2h2v-2h3a2 2 0 0 0 2-2v-3h2v-2h-2v-2h2v-2h-2V9zm-4 11H4V4h16z" fill="#FFFFFF" fill-opacity="0.5"></path></g></g></svg>