<?xml version="1.0"?>
<svg xmlns="http://www.w3.org/2000/svg" xmlns:xlink="http://www.w3.org/1999/xlink" xmlns:svgjs="http://svgjs.com/svgjs" version="1.1" width="512" height="512" x="0" y="0" viewBox="0 0 512 512" style="enable-background:new 0 0 512 512" xml:space="preserve" class=""><g>
<path xmlns="http://www.w3.org/2000/svg" style="" d="M392,165v242v90c0,8.291,6.709,15,15,15h45c33.091,0,60-26.909,60-60V135L392,165z" fill="#0069ff" data-original="#136ef1" class=""/>
<path xmlns="http://www.w3.org/2000/svg" style="" d="M512,135c0,24.899-20.099,45-45,45h-75v302H75c-41.4,0-75-33.6-75-75V45l60,45h407  C491.901,90,512,110.099,512,135z" fill="#4086f4" data-original="#17ace8" class=""/>
<path xmlns="http://www.w3.org/2000/svg" style="" d="M512,135c0,24.899-20.099,45-45,45h-75v302H211V90h256C491.901,90,512,110.099,512,135z" fill="#4175df" data-original="#1689fc" class=""/>
<path xmlns="http://www.w3.org/2000/svg" style="" d="M347,240h-75v-75c0-8.401-6.599-15-15-15H75c-8.401,0-15,6.599-15,15v242c0,8.399,6.599,15,15,15h272  c8.401,0,15-6.601,15-15V255C362,246.599,355.401,240,347,240z M332,302h-45c-8.401,0-15,6.599-15,15v30c0,8.399,6.599,15,15,15  s15-6.601,15-15v-15h30v60H181v-30h15c8.401,0,15-6.601,15-15c0-8.401-6.599-15-15-15h-60c-8.401,0-16,6.599-16,15  c0,8.399,7.599,15,16,15h15v30H90V180h61v60h-15c-8.401,0-16,6.599-16,15c0,8.399,7.599,15,16,15h30c8.401,0,15-6.601,15-15v-75h61  v75c0,8.399,6.599,15,15,15h75V302z" fill="#fff5f5" data-original="#e1e4fb" class=""/>
<path xmlns="http://www.w3.org/2000/svg" style="" d="M120,90H45C20.147,90,0,69.853,0,45l0,0C0,20.147,20.147,0,45,0h60c8.284,0,15,6.716,15,15V90z" fill="#4175df" data-original="#1689fc" class=""/>
<path xmlns="http://www.w3.org/2000/svg" style="" d="M362,255v152c0,8.399-6.599,15-15,15H211v-30h121v-60h-30v15c0,8.399-6.599,15-15,15s-15-6.601-15-15  v-30c0-8.401,6.599-15,15-15h45v-32h-75c-8.401,0-15-6.601-15-15v-75h-31v-30h46c8.401,0,15,6.599,15,15v75h75  C355.401,240,362,246.599,362,255z" fill="#c5c9f7" data-original="#c5c9f7" class=""/>
<g xmlns="http://www.w3.org/2000/svg">
</g>
<g xmlns="http://www.w3.org/2000/svg">
</g>
<g xmlns="http://www.w3.org/2000/svg">
</g>
<g xmlns="http://www.w3.org/2000/svg">
</g>
<g xmlns="http://www.w3.org/2000/svg">
</g>
<g xmlns="http://www.w3.org/2000/svg">
</g>
<g xmlns="http://www.w3.org/2000/svg">
</g>
<g xmlns="http://www.w3.org/2000/svg">
</g>
<g xmlns="http://www.w3.org/2000/svg">
</g>
<g xmlns="http://www.w3.org/2000/svg">
</g>
<g xmlns="http://www.w3.org/2000/svg">
</g>
<g xmlns="http://www.w3.org/2000/svg">
</g>
<g xmlns="http://www.w3.org/2000/svg">
</g>
<g xmlns="http://www.w3.org/2000/svg">
</g>
<g xmlns="http://www.w3.org/2000/svg">
</g>
</g></svg>
