<?xml version="1.0"?>
<svg xmlns="http://www.w3.org/2000/svg" xmlns:xlink="http://www.w3.org/1999/xlink" xmlns:svgjs="http://svgjs.com/svgjs" version="1.1" width="512" height="512" x="0" y="0" viewBox="0 0 512 512" style="enable-background:new 0 0 512 512" xml:space="preserve" class=""><g>
<g xmlns="http://www.w3.org/2000/svg">
	<path style="" d="M308.966,0h176.552c4.875,0,8.828,3.952,8.828,8.828v185.379c0,4.875-3.952,8.828-8.828,8.828   H308.966c-4.875,0-8.828-3.952-8.828-8.828V8.828C300.138,3.952,304.09,0,308.966,0z" fill="#babac0" data-original="#a5a5a4" class=""/>
	<g>
		<path style="" d="M344.276,52.966h26.483c4.875,0,8.828,3.952,8.828,8.828v17.655c0,4.875-3.952,8.828-8.828,8.828    h-26.483c-4.875,0-8.828-3.952-8.828-8.828V61.793C335.448,56.918,339.401,52.966,344.276,52.966z" fill="#fff5f5" data-original="#e4c05c" class=""/>
		<path style="" d="M423.724,52.966h26.483c4.875,0,8.828,3.952,8.828,8.828v17.655c0,4.875-3.952,8.828-8.828,8.828    h-26.483c-4.875,0-8.828-3.952-8.828-8.828V61.793C414.897,56.918,418.849,52.966,423.724,52.966z" fill="#fff5f5" data-original="#e4c05c" class=""/>
	</g>
	<path style="" d="M44.138,0h105.931c19.501,0,35.31,15.809,35.31,35.31v132.414H8.828V35.31   C8.828,15.809,24.637,0,44.138,0z" fill="#babac0" data-original="#a5a5a4" class=""/>
	<path style="" d="M79.448,35.31v52.966H61.793c-9.739-0.029-17.627-7.916-17.655-17.655V52.966   c0.028-9.739,7.916-17.627,17.655-17.655H79.448z" fill="#fff5f5" data-original="#e4c05c" class=""/>
	<rect x="79.448" y="35.31" style="" width="35.31" height="52.966" fill="#4175df" data-original="#b19046" class=""/>
	<path style="" d="M150.069,52.966v17.655c-0.029,9.739-7.916,17.627-17.655,17.655h-17.655V35.31h17.655   C142.153,35.339,150.041,43.227,150.069,52.966z" fill="#fff5f5" data-original="#e4c05c" class=""/>
	<g>
		<path style="" d="M512,194.207v211.862c-0.015,4.869-3.958,8.813-8.828,8.828h-61.793v52.966    c-0.015,4.869-3.958,8.813-8.828,8.828h-17.655v26.483c-0.015,4.869-3.958,8.813-8.828,8.828h-17.655    c-4.869-0.015-8.813-3.958-8.828-8.828V476.69h-17.655c-4.869-0.015-8.813-3.958-8.828-8.828v-52.966H291.31    c-4.869-0.015-8.813-3.958-8.828-8.828V194.207c0.015-4.869,3.958-8.813,8.828-8.828h211.862    C508.042,185.394,511.985,189.338,512,194.207z" fill="#4086f4" data-original="#4482c3" class=""/>
		<path style="" d="M194.207,176.552v229.517c-0.015,4.869-3.958,8.813-8.828,8.828h-44.138v52.966    c-0.015,4.869-3.958,8.813-8.828,8.828h-17.655v26.483c-0.015,4.869-3.958,8.813-8.828,8.828H88.276    c-4.869-0.015-8.813-3.958-8.828-8.828V476.69H61.793c-4.869-0.015-8.813-3.958-8.828-8.828v-52.966H8.828    c-4.869-0.015-8.813-3.958-8.828-8.828V176.552c0.015-4.869,3.958-8.813,8.828-8.828h176.552    C190.249,167.739,194.192,171.682,194.207,176.552z" fill="#4086f4" data-original="#4482c3" class=""/>
	</g>
	<path style="" d="M52.966,414.897h88.276v52.966c0,4.875-3.952,8.828-8.828,8.828H61.793   c-4.875,0-8.828-3.952-8.828-8.828V414.897z" fill="#4175df" data-original="#285680" class=""/>
	<path style="" d="M79.448,476.69h35.31v26.483c0,4.875-3.952,8.828-8.828,8.828H88.276   c-4.875,0-8.828-3.952-8.828-8.828V476.69z" fill="#4086f4" data-original="#4482c3" class=""/>
	<path style="" d="M353.103,414.897h88.276v52.966c0,4.875-3.952,8.828-8.828,8.828h-70.621   c-4.875,0-8.828-3.952-8.828-8.828V414.897z" fill="#4175df" data-original="#285680" class=""/>
	<path style="" d="M379.586,476.69h35.31v26.483c0,4.875-3.952,8.828-8.828,8.828h-17.655   c-4.875,0-8.828-3.952-8.828-8.828V476.69z" fill="#4086f4" data-original="#4482c3" class=""/>
	<g>
		<path style="" d="M459.034,238.345h-17.655c-4.735-0.032-8.641,3.702-8.822,8.434    c-0.182,4.732,3.426,8.754,8.15,9.085c-2.359,18.04-16.589,32.219-34.638,34.513V242l2.586,2.586    c2.225,2.253,5.487,3.142,8.547,2.328c3.06-0.813,5.451-3.204,6.264-6.264c0.813-3.061-0.076-6.322-2.329-8.547l-17.655-17.655    c-0.079-0.079-0.188-0.103-0.269-0.179c-0.752-0.73-1.631-1.318-2.593-1.735l-0.031-0.008c-0.072-0.029-0.148-0.029-0.22-0.056    c-0.908-0.341-1.866-0.528-2.836-0.552c-0.268-0.009-0.521,0.024-0.789,0.039c-0.788,0.043-1.567,0.195-2.314,0.45    c-0.267,0.09-0.524,0.164-0.783,0.281c-0.983,0.419-1.88,1.015-2.648,1.759l-17.655,17.655c-3.417,3.452-3.403,9.016,0.032,12.451    c3.435,3.435,8.999,3.449,12.451,0.031l2.586-2.586v65.968c-21.333-2.768-36.813-21.681-35.31-43.14    c0-4.875-3.952-8.828-8.828-8.828s-8.828,3.952-8.828,8.828c-1.588,31.282,21.776,58.251,52.966,61.136v18.312    c0,4.875,3.952,8.828,8.828,8.828c4.875,0,8.828-3.952,8.828-8.828v-35.967c27.783-2.581,49.814-24.535,52.493-52.309h0.472    c4.875,0,8.828-3.952,8.828-8.828S463.91,238.345,459.034,238.345z" fill="#fff5f5" data-original="#d1d4d1" class=""/>
		<circle style="" cx="397.241" cy="361.931" r="17.655" fill="#fff5f5" data-original="#d1d4d1" class=""/>
	</g>
</g>
<g xmlns="http://www.w3.org/2000/svg">
</g>
<g xmlns="http://www.w3.org/2000/svg">
</g>
<g xmlns="http://www.w3.org/2000/svg">
</g>
<g xmlns="http://www.w3.org/2000/svg">
</g>
<g xmlns="http://www.w3.org/2000/svg">
</g>
<g xmlns="http://www.w3.org/2000/svg">
</g>
<g xmlns="http://www.w3.org/2000/svg">
</g>
<g xmlns="http://www.w3.org/2000/svg">
</g>
<g xmlns="http://www.w3.org/2000/svg">
</g>
<g xmlns="http://www.w3.org/2000/svg">
</g>
<g xmlns="http://www.w3.org/2000/svg">
</g>
<g xmlns="http://www.w3.org/2000/svg">
</g>
<g xmlns="http://www.w3.org/2000/svg">
</g>
<g xmlns="http://www.w3.org/2000/svg">
</g>
<g xmlns="http://www.w3.org/2000/svg">
</g>
</g></svg>
